<?xml version="1.0" encoding="utf-8"?>
<!-- Generator: Adobe Illustrator 26.3.1, SVG Export Plug-In . SVG Version: 6.00 Build 0)  -->
<svg version="1.1" id="layer" xmlns="http://www.w3.org/2000/svg" xmlns:xlink="http://www.w3.org/1999/xlink" x="0px" y="0px"
	 width="400px" height="93px" viewBox="0 0 400 93" enable-background="new 0 0 400 93" xml:space="preserve">
<g>
	<rect fill="none" width="400" height="93"/>
	<g>
		<polygon fill="#6FC5C6" points="111.2,56.4 69.3,22.6 69.3,41.8 31.5,41.8 31.5,48.7 13.1,33.8 31.5,18.9 31.5,25.8 55.6,25.8 
			55.6,19.2 41.9,19.2 41.9,0 0,33.8 41.9,67.6 41.9,48.4 79.6,48.4 79.6,41.5 98,56.4 79.6,71.2 79.6,64.4 55.6,64.4 55.6,71 
			69.3,71 69.3,90.2 		"/>
		<g>
			<path fill="#6FC5C6" d="M137.3,55.9l3.9-8.8c3.7,2.5,9,4.1,13.9,4.1c4.9,0,6.8-1.4,6.8-3.4c0-6.7-23.9-1.8-23.9-17.4
				c0-7.5,6.1-13.6,18.6-13.6c5.5,0,11.1,1.3,15.2,3.7l-3.7,8.8c-4-2.2-8-3.2-11.6-3.2c-5,0-6.8,1.7-6.8,3.8
				c0,6.4,23.8,1.6,23.8,17.1c0,7.3-6.1,13.6-18.6,13.6C148.1,60.6,141.3,58.7,137.3,55.9z"/>
			<path fill="#6FC5C6" d="M244.9,17.7l-13.6,42h-12.7l-8-25.5l-8.4,25.5h-12.7l-13.6-42H188l8.5,26.8l8.9-26.8h10.9l8.5,27l8.8-27
				H244.9z"/>
			<path fill="#6FC5C6" d="M275.8,51.6h-17.8l-3.3,8.2h-12.1l18.5-42h11.7l18.6,42h-12.4L275.8,51.6z M272.3,42.8l-5.4-13.4
				l-5.4,13.4H272.3z"/>
			<path fill="#6FC5C6" d="M330.3,32.1c0,8.9-6.5,14.3-17.2,14.3h-11.3v13.3h-4.4v-42h15.7C323.8,17.7,330.3,23.1,330.3,32.1z
				 M325.9,32.1c0-6.7-4.4-10.6-12.8-10.6h-11.2v21h11.2C321.4,42.6,325.9,38.7,325.9,32.1z"/>
			<path fill="#6FC5C6" d="M362.5,40.2v19.5h-4.1v-4.9c-1.9,3.2-5.6,5.2-10.9,5.2c-7.1,0-11.5-3.7-11.5-9.2c0-4.9,3.1-8.9,12.2-8.9
				h10V40c0-5.4-3.1-8.3-8.9-8.3c-4.1,0-7.9,1.4-10.5,3.7l-1.9-3.2c3.2-2.7,7.9-4.3,12.8-4.3C357.9,27.9,362.5,32,362.5,40.2z
				 M358.3,50.2v-5.2h-9.9c-6.1,0-8.1,2.4-8.1,5.6c0,3.7,2.9,5.9,8,5.9C353,56.7,356.6,54.4,358.3,50.2z"/>
			<path fill="#6FC5C6" d="M400,28.2l-15.8,35.3c-2.6,6.2-6,8.2-10.5,8.2c-2.9,0-5.8-1-7.7-2.9l2-3.2c1.6,1.6,3.5,2.4,5.8,2.4
				c2.8,0,4.7-1.3,6.5-5.3l1.4-3.1l-14.1-31.5h4.4L383.9,55l11.9-26.8H400z"/>
		</g>
		<g>
			<path fill="#6FC5C6" d="M175.7,87.6v1.8H168v-9.8h7.5v1.8h-5.2v2.1h4.6v1.8h-4.6v2.3H175.7z"/>
			<path fill="#6FC5C6" d="M176.8,88.5l0.5-0.8c0.6,0.5,1.6,0.8,2.7,0.8c1.4,0,2-0.5,2-1.2c0-1.9-4.9-0.4-4.9-3.3
				c0-1.2,1.1-2.1,3-2.1c1,0,2,0.3,2.6,0.7l-0.4,0.8c-0.7-0.4-1.4-0.6-2.2-0.6c-1.4,0-2,0.5-2,1.2c0,2,4.9,0.5,4.9,3.3
				c0,1.3-1.1,2.1-3.1,2.1C178.6,89.4,177.4,89.1,176.8,88.5z"/>
			<path fill="#6FC5C6" d="M184,85.7c0-2.2,1.6-3.7,3.9-3.7c1.3,0,2.3,0.5,2.9,1.5l-0.8,0.5c-0.5-0.7-1.3-1.1-2.2-1.1
				c-1.6,0-2.8,1.1-2.8,2.9c0,1.7,1.2,2.9,2.8,2.9c0.9,0,1.7-0.3,2.2-1.1l0.8,0.5c-0.6,0.9-1.7,1.5-2.9,1.5
				C185.6,89.4,184,87.9,184,85.7z"/>
			<path fill="#6FC5C6" d="M196.5,82v1c-0.1,0-0.2,0-0.2,0c-1.6,0-2.5,1-2.5,2.7v3.7h-1V82h1v1.4C194.2,82.5,195.2,82,196.5,82z"/>
			<path fill="#6FC5C6" d="M197.5,85.7c0-2.2,1.6-3.7,3.8-3.7s3.8,1.5,3.8,3.7c0,2.2-1.6,3.7-3.8,3.7S197.5,87.9,197.5,85.7z
				 M204.1,85.7c0-1.7-1.2-2.9-2.8-2.9c-1.6,0-2.8,1.1-2.8,2.9s1.2,2.9,2.8,2.9C202.9,88.6,204.1,87.4,204.1,85.7z"/>
			<path fill="#6FC5C6" d="M218,82l-2.8,7.3h-1l-2.4-6l-2.4,6h-1l-2.8-7.3h1l2.3,6.2l2.4-6.2h0.9l2.4,6.2l2.4-6.2H218z"/>
			<path fill="#6FC5C6" d="M222.2,88.4l0.8-1.7c0.8,0.6,2.1,1,3.3,1c1.4,0,1.9-0.4,1.9-1c0-1.8-5.8-0.6-5.8-4.2c0-1.7,1.4-3,4.2-3
				c1.3,0,2.5,0.3,3.5,0.9l-0.7,1.7c-0.9-0.5-1.9-0.8-2.8-0.8c-1.4,0-1.9,0.5-1.9,1.1c0,1.8,5.8,0.6,5.8,4.1c0,1.6-1.4,3-4.2,3
				C224.7,89.5,223.1,89.1,222.2,88.4z"/>
			<path fill="#6FC5C6" d="M243.3,82l-2.8,7.3h-1l-2.4-6l-2.4,6h-1L231,82h1l2.3,6.2l2.4-6.2h0.9l2.4,6.2l2.4-6.2H243.3z"/>
			<path fill="#6FC5C6" d="M250.2,84.8v4.6h-1v-1.1c-0.5,0.8-1.3,1.2-2.6,1.2c-1.7,0-2.7-0.9-2.7-2.1c0-1.1,0.7-2.1,2.9-2.1h2.4
				v-0.4c0-1.3-0.7-1.9-2.1-1.9c-1,0-1.9,0.3-2.5,0.9l-0.5-0.7c0.8-0.6,1.9-1,3-1C249.2,82,250.2,82.9,250.2,84.8z M249.2,87.2V86
				h-2.3c-1.5,0-1.9,0.6-1.9,1.3c0,0.9,0.7,1.4,1.9,1.4C248,88.7,248.8,88.1,249.2,87.2z"/>
			<path fill="#6FC5C6" d="M260.6,85.7c0,2.2-1.6,3.7-3.7,3.7c-1.2,0-2.2-0.5-2.8-1.5v4.1h-1V82h1v1.5c0.6-1,1.7-1.5,2.9-1.5
				C259,82,260.6,83.5,260.6,85.7z M259.6,85.7c0-1.7-1.2-2.9-2.8-2.9c-1.6,0-2.8,1.2-2.8,2.9c0,1.7,1.2,2.9,2.8,2.9
				C258.4,88.6,259.6,87.4,259.6,85.7z"/>
			<path fill="#6FC5C6" d="M274.8,83.2c0,2.2-1.7,3.5-4.3,3.5h-2v2.7h-2.3v-9.8h4.3C273.1,79.6,274.8,81,274.8,83.2z M272.4,83.2
				c0-1.1-0.7-1.7-2.1-1.7h-1.9v3.4h1.9C271.7,84.8,272.4,84.2,272.4,83.2z"/>
			<path fill="#6FC5C6" d="M282.4,84.8v4.6h-1v-1.1c-0.5,0.8-1.3,1.2-2.6,1.2c-1.7,0-2.7-0.9-2.7-2.1c0-1.1,0.7-2.1,2.9-2.1h2.4
				v-0.4c0-1.3-0.7-1.9-2.1-1.9c-1,0-1.9,0.3-2.5,0.9l-0.5-0.7c0.8-0.6,1.9-1,3-1C281.3,82,282.4,82.9,282.4,84.8z M281.4,87.2V86
				h-2.3c-1.5,0-1.9,0.6-1.9,1.3c0,0.9,0.7,1.4,1.9,1.4C280.2,88.7,281,88.1,281.4,87.2z"/>
			<path fill="#6FC5C6" d="M291.3,82l-3.7,8.2c-0.6,1.4-1.4,1.9-2.5,1.9c-0.7,0-1.4-0.2-1.8-0.7l0.5-0.7c0.4,0.4,0.8,0.6,1.4,0.6
				c0.7,0,1.1-0.3,1.6-1.2l0.3-0.7l-3.3-7.3h1.1l2.8,6.2l2.8-6.2H291.3z"/>
			<path fill="#6FC5C6" d="M305.1,85.1v4.3h-1v-4.2c0-1.5-0.8-2.3-2.1-2.3c-1.5,0-2.5,1-2.5,2.7v3.9h-1v-4.2c0-1.5-0.8-2.3-2.2-2.3
				c-1.5,0-2.5,1-2.5,2.7v3.9h-1V82h1v1.3c0.5-0.9,1.5-1.4,2.7-1.4c1.2,0,2.2,0.5,2.7,1.5c0.5-0.9,1.6-1.5,3-1.5
				C303.9,82,305.1,83,305.1,85.1z"/>
			<path fill="#6FC5C6" d="M314.4,86h-6.3c0.1,1.5,1.3,2.6,2.9,2.6c0.9,0,1.7-0.3,2.3-1l0.6,0.6c-0.7,0.8-1.7,1.2-2.9,1.2
				c-2.3,0-3.9-1.6-3.9-3.7c0-2.2,1.6-3.7,3.7-3.7c2.1,0,3.6,1.5,3.6,3.7C314.4,85.8,314.4,85.9,314.4,86z M308.1,85.3h5.3
				c-0.1-1.4-1.2-2.4-2.7-2.4C309.3,82.8,308.3,83.8,308.1,85.3z"/>
			<path fill="#6FC5C6" d="M323.4,85.1v4.3h-1v-4.2c0-1.5-0.8-2.3-2.2-2.3c-1.6,0-2.6,1-2.6,2.7v3.9h-1V82h1v1.4
				c0.5-0.9,1.6-1.4,2.8-1.4C322.1,82,323.4,83,323.4,85.1z"/>
			<path fill="#6FC5C6" d="M330.1,88.9c-0.4,0.3-1,0.5-1.6,0.5c-1.4,0-2.2-0.8-2.2-2.1v-4.4h-1.3V82h1.3v-1.6h1V82h2.3v0.8h-2.3v4.4
				c0,0.9,0.5,1.3,1.3,1.3c0.4,0,0.8-0.1,1.1-0.4L330.1,88.9z"/>
		</g>
	</g>
</g>
</svg>
